<svg width="32" height="32" viewBox="0 0 100 100" fill="none" xmlns="http://www.w3.org/2000/svg">
  <defs>
    <linearGradient id="a" x1="0%" y1="0%" x2="100%" y2="100%">
      <stop offset="0%" stop-color="#8B5CF6"/>
      <stop offset="100%" stop-color="#7C3AED"/>
    </linearGradient>
    <linearGradient id="b" x1="0%" y1="0%" x2="100%" y2="100%">
      <stop offset="0%" stop-color="#F97316"/>
      <stop offset="100%" stop-color="#EC4899"/>
    </linearGradient>
  </defs>

  <!-- Большой пузырь (фиолетовый) — учитель -->
  <rect x="4" y="4" width="64" height="48" rx="14" fill="url(#a)"/>
  <polygon points="52,52 65,52 61,64" fill="#7C3AED"/>

  <!-- Маленький пузырь (оранжевый) — ребёнок -->
  <rect x="36" y="54" width="58" height="40" rx="12" fill="url(#b)"/>
  <polygon points="40,54 52,54 43,44" fill="#F97316"/>

  <!-- Три звёздочки в большом пузыре -->
  <path d="M22 28 L23.1 24.9 L26 23.8 L23.1 22.7 L22 19.6 L20.9 22.7 L18 23.8 L20.9 24.9Z" fill="white" opacity="0.95"/>
  <path d="M36 28 L37.1 24.9 L40 23.8 L37.1 22.7 L36 19.6 L34.9 22.7 L32 23.8 L34.9 24.9Z" fill="white" opacity="0.88"/>
  <path d="M50 28 L51.1 24.9 L54 23.8 L51.1 22.7 L50 19.6 L48.9 22.7 L46 23.8 L48.9 24.9Z" fill="white" opacity="0.75"/>

  <!-- Улыбка в маленьком пузыре -->
  <path d="M50 70 Q65 80 80 70" stroke="white" stroke-width="2.8" fill="none" stroke-linecap="round" opacity="0.85"/>
</svg>
